<?xml version="1.0" encoding="utf-8"?>
<!-- Generated by IcoMoon.io -->
<!DOCTYPE svg PUBLIC "-//W3C//DTD SVG 1.1//EN" "http://www.w3.org/Graphics/SVG/1.1/DTD/svg11.dtd">
<svg version="1.1" xmlns="http://www.w3.org/2000/svg" xmlns:xlink="http://www.w3.org/1999/xlink" width="32" height="32" viewBox="0 0 32 32">
<g>
	<line stroke-width="1" x1="" y1="" x2="" y2="" stroke="#449FDB" opacity=""></line>
</g>
	<path d="M0 20.875v-9.75q0-0.732 0.607-1.143l14.625-9.75q0.375-0.232 0.768-0.232t0.768 0.232l14.625 9.75q0.607 0.411 0.607 1.143v9.75q0 0.732-0.607 1.143l-14.625 9.75q-0.375 0.232-0.768 0.232t-0.768-0.232l-14.625-9.75q-0.607-0.411-0.607-1.143zM2.75 18.304l3.446-2.304-3.446-2.304v4.607zM3.857 20.875l10.768 7.179v-6.411l-5.964-3.982zM3.857 11.125l4.804 3.214 5.964-3.982v-6.411zM11.143 16l4.857 3.25 4.857-3.25-4.857-3.25zM17.375 28.054l10.768-7.179-4.804-3.214-5.964 3.982v6.411zM17.375 10.357l5.964 3.982 4.804-3.214-10.768-7.179v6.411zM25.804 16l3.446 2.304v-4.607z" fill="#000000"></path>
</svg>
